<svg width="24" height="25" viewBox="0 0 24 25" fill="none" xmlns="http://www.w3.org/2000/svg">
<path d="M12.0017 0.385864L22.394 6.38586V18.3859L12.0017 24.3859L1.60938 18.3859V6.38586L12.0017 0.385864Z" fill="url(#paint0_linear_8337_2682)"/>
<path fill-rule="evenodd" clip-rule="evenodd" d="M17.2957 8.01002C17.2957 8.77087 16.7725 9.40953 16.0663 9.58587L14.0957 7.61526C14.2721 6.90903 14.9107 6.38586 15.6716 6.38586C16.5686 6.38586 17.2957 7.11303 17.2957 8.01002ZM15.473 8.62725C15.3938 8.68135 15.3231 8.72967 15.2644 8.78324L15.0258 8.54461C15.013 8.37798 15.029 8.19221 15.1203 8.0412C15.3006 7.74301 15.6605 7.52851 15.863 7.40783L15.863 7.40783C15.9106 7.37949 15.9494 7.35632 15.9753 7.33846C16.1107 7.24479 16.308 7.08195 16.3205 7.03543C16.3212 7.05351 16.3471 7.77453 15.9704 8.20491C15.7909 8.40997 15.6178 8.52826 15.473 8.62725L15.473 8.62725Z" fill="white"/>
<path d="M8.00195 13.1859V16.9859C8.00195 17.5382 8.44967 17.9859 9.00195 17.9859H15.002C15.5543 17.9859 16.002 17.5382 16.002 16.9859V13.1859" stroke="white" stroke-linecap="round"/>
<path d="M7.20117 11.5859L11.6476 7.13944C11.8429 6.94418 12.1595 6.94418 12.3547 7.13944L16.8012 11.5859" stroke="white" stroke-linecap="round"/>
<path d="M13.8933 12.7859L11.4933 15.1859L10.4023 14.095" stroke="white" stroke-linecap="round" stroke-linejoin="round"/>
<path d="M7.63545 4.81502L7.63552 4.81498C8.8114 4.13018 9.91583 3.50862 10.7471 3.05914C11.1634 2.83407 11.5076 2.65409 11.7566 2.53134C11.8577 2.48147 11.9395 2.44288 12.002 2.41515C12.0644 2.44288 12.1462 2.48147 12.2473 2.53134C12.4963 2.65409 12.8405 2.83407 13.2568 3.05914C14.0881 3.50862 15.1925 4.13018 16.3684 4.81498L16.3685 4.81502L20.4082 7.16678V12.421V17.6732L16.1829 20.1007L11.9561 22.529L7.77526 20.1214L7.77521 20.1214L3.5957 17.7151V12.4414V7.16678L7.63545 4.81502ZM12.1038 2.37329C12.1149 2.36961 12.1133 2.37092 12.1023 2.37381C12.1028 2.37362 12.1034 2.37344 12.1038 2.37329ZM11.9016 2.37381C11.8906 2.37092 11.889 2.36961 11.9001 2.37329C11.9005 2.37344 11.9011 2.37362 11.9016 2.37381Z" stroke="#FFC600" stroke-opacity="0.2"/>
<defs>
<linearGradient id="paint0_linear_8337_2682" x1="5.25171" y1="21.0109" x2="24.0017" y2="0.385863" gradientUnits="userSpaceOnUse">
<stop stop-color="#FFC600"/>
<stop offset="1" stop-color="#C49800" stop-opacity="0.9375"/>
</linearGradient>
</defs>
</svg>
