<svg width="17" height="16" viewBox="0 0 17 16" fill="none" xmlns="http://www.w3.org/2000/svg">
<path fill-rule="evenodd" clip-rule="evenodd" d="M16.8211 1.39199C16.8776 1.44839 16.9225 1.51539 16.9531 1.58915C16.9837 1.66291 16.9995 1.74198 16.9995 1.82184C16.9995 1.9017 16.9837 1.98078 16.9531 2.05454C16.9225 2.1283 16.8776 2.1953 16.8211 2.2517L8.3212 10.7516C8.2648 10.8081 8.1978 10.853 8.12404 10.8836C8.05028 10.9142 7.9712 10.93 7.89134 10.93C7.81148 10.93 7.73241 10.9142 7.65865 10.8836C7.58489 10.853 7.51789 10.8081 7.46149 10.7516L3.81868 7.10878C3.76223 7.05233 3.71745 6.98532 3.6869 6.91157C3.65635 6.83781 3.64063 6.75876 3.64062 6.67893C3.64062 6.5991 3.65635 6.52005 3.6869 6.4463C3.71745 6.37254 3.76223 6.30553 3.81868 6.24908C3.87512 6.19263 3.94214 6.14785 4.01589 6.1173C4.08965 6.08675 4.1687 6.07103 4.24853 6.07103C4.32836 6.07103 4.40741 6.08675 4.48116 6.1173C4.55492 6.14785 4.62193 6.19263 4.67838 6.24908L7.89134 9.46326L15.9614 1.39199C16.0178 1.33545 16.0848 1.29059 16.1585 1.25999C16.2323 1.22938 16.3114 1.21362 16.3912 1.21362C16.4711 1.21362 16.5502 1.22938 16.6239 1.25999C16.6977 1.29059 16.7647 1.33545 16.8211 1.39199Z" fill="#1C1D22"/>
<path fill-rule="evenodd" clip-rule="evenodd" d="M7.89278 1.2153C6.5719 1.2153 5.28068 1.60698 4.1824 2.34083C3.08413 3.07467 2.22813 4.11771 1.72265 5.33804C1.21717 6.55838 1.08492 7.9012 1.34261 9.1967C1.6003 10.4922 2.23636 11.6822 3.17037 12.6162C4.10437 13.5502 5.29437 14.1863 6.58987 14.444C7.88537 14.7017 9.22819 14.5694 10.4485 14.0639C11.6689 13.5584 12.7119 12.7024 13.4457 11.6042C14.1796 10.5059 14.5713 9.21467 14.5713 7.89379C14.5713 7.73277 14.6352 7.57834 14.7491 7.46448C14.863 7.35062 15.0174 7.28666 15.1784 7.28666C15.3394 7.28666 15.4939 7.35062 15.6077 7.46448C15.7216 7.57834 15.7855 7.73277 15.7855 7.89379C15.7853 9.63122 15.2118 11.32 14.154 12.6983C13.0962 14.0766 11.6131 15.0673 9.93484 15.5168C8.25658 15.9663 6.47688 15.8495 4.87176 15.1845C3.26664 14.5195 1.9258 13.3434 1.05719 11.8387C0.188572 10.334 -0.159278 8.58474 0.0675845 6.86219C0.294447 5.13964 1.08334 3.54008 2.31193 2.31157C3.54051 1.08306 5.14013 0.29427 6.86269 0.0675184C8.58525 -0.159233 10.3345 0.188729 11.8392 1.05744C11.9117 1.0954 11.9758 1.14764 12.0277 1.21102C12.0795 1.2744 12.118 1.34761 12.1408 1.42625C12.1636 1.5049 12.1703 1.58734 12.1604 1.66862C12.1506 1.74991 12.1244 1.82836 12.0834 1.89925C12.0424 1.97014 11.9875 2.03202 11.922 2.08114C11.8565 2.13027 11.7817 2.16564 11.7022 2.18512C11.6227 2.2046 11.54 2.20779 11.4592 2.1945C11.3784 2.18121 11.3011 2.15171 11.232 2.10779C10.2172 1.52092 9.0651 1.213 7.89278 1.2153Z" fill="#1C1D22"/>
</svg>
