<svg width="151" height="150" viewBox="0 0 151 150" fill="none" xmlns="http://www.w3.org/2000/svg">
<path d="M68.0334 0.317206L65.3435 56.6202C65.3375 56.7467 65.4038 56.8657 65.5145 56.9272L82.7806 66.5122C83.0315 66.6515 83.3293 66.4294 83.2673 66.1492L68.6911 0.261169C68.6072 -0.118314 68.0519 -0.0710085 68.0334 0.317206Z" fill="#FFC600"/>
<path d="M143.501 106.362L96.6033 74.5387C96.4936 74.4642 96.3501 74.4619 96.2381 74.5329L79.4891 85.1406C79.2519 85.2908 79.2956 85.6491 79.5619 85.7378L143.208 106.953C143.575 107.076 143.821 106.579 143.501 106.362Z" fill="#FFC600"/>
<path d="M27.7725 128.86L69.4868 90.9497C69.5805 90.8645 69.6178 90.7334 69.583 90.6116L64.1517 71.6251C64.0727 71.3492 63.705 71.2956 63.5507 71.5376L27.2678 128.434C27.0588 128.762 27.4849 129.121 27.7725 128.86Z" fill="#FFC600"/>
<path d="M82.1263 71.7204C84.0864 75.1154 82.9232 79.4565 79.5282 81.4166C76.1332 83.3767 71.7921 82.2135 69.832 78.8185C67.8719 75.4236 69.0351 71.0824 72.4301 69.1223C75.8251 67.1622 80.1662 68.3254 82.1263 71.7204Z" fill="#FFC600"/>
<path d="M38.1717 13.8652L37.6118 9.92792C37.5781 9.69094 37.3081 9.56885 37.1046 9.69488C2.68223 31.0147 -1.685 69.6198 0.452158 86.3217C-1.77643 46.5718 24.4344 21.7653 38.0092 14.2008C38.1302 14.1334 38.1911 14.0023 38.1717 13.8652Z" fill="#FFC600"/>
<path d="M43.5811 18.0315L43.4851 15.4678C43.4754 15.209 43.1825 15.063 42.9668 15.2063C15.3785 33.5251 8.99493 61.9436 9.26353 73.9273C10.7809 45.1324 32.5633 24.9386 43.4259 18.3263C43.5294 18.2633 43.5856 18.1527 43.5811 18.0315Z" fill="#FFC600"/>
<path d="M49.5476 141.541L46.7526 144.37C46.5844 144.54 46.6507 144.829 46.8741 144.914C84.6816 159.407 118.053 139.513 130.053 127.702C99.7634 153.538 64.1516 147.692 49.9131 141.467C49.7862 141.411 49.6449 141.442 49.5476 141.541Z" fill="#FFC600"/>
<path d="M49.5905 134.709L47.608 136.338C47.4079 136.502 47.469 136.823 47.7137 136.908C78.9953 147.778 105.48 135.656 114.855 128.188C91.0173 144.411 61.7579 139.298 49.9191 134.654C49.8063 134.61 49.6842 134.632 49.5905 134.709Z" fill="#FFC600"/>
<path d="M146.585 73.1256L150.275 74.6093C150.497 74.6986 150.738 74.5259 150.73 74.2867C149.478 33.8161 118.228 10.7314 102.696 4.23132C138.234 22.1762 146.612 57.2788 146.376 72.8171C146.373 72.9555 146.457 73.0739 146.585 73.1256Z" fill="#FFC600"/>
<path d="M140.269 75.7245L142.538 76.9232C142.767 77.0442 143.039 76.8635 143.023 76.605C140.953 43.5535 119.533 23.8159 109.021 18.0567C133.199 33.7683 139.797 62.7292 140.092 75.4426C140.094 75.5638 140.162 75.6678 140.269 75.7245Z" fill="#FFC600"/>
</svg>
