<svg width="16" height="16" viewBox="0 0 16 16" fill="none" xmlns="http://www.w3.org/2000/svg">
<path fill-rule="evenodd" clip-rule="evenodd" d="M6.39766 3.19998C5.54896 3.19998 4.73503 3.53712 4.13491 4.13724C3.5348 4.73735 3.19766 5.55129 3.19766 6.39998C3.19766 7.24867 3.5348 8.0626 4.13491 8.66272C4.73503 9.26284 5.54896 9.59998 6.39766 9.59998C7.24635 9.59998 8.06028 9.26284 8.6604 8.66272C9.26051 8.0626 9.59766 7.24867 9.59766 6.39998C9.59766 5.55129 9.26051 4.73735 8.6604 4.13724C8.06028 3.53712 7.24635 3.19998 6.39766 3.19998ZM1.59766 6.39998C1.59756 5.64454 1.77577 4.89975 2.11779 4.22617C2.45982 3.5526 2.95599 2.96926 3.56597 2.5236C4.17595 2.07794 4.88251 1.78255 5.62817 1.66144C6.37384 1.54034 7.13756 1.59695 7.85723 1.82666C8.57689 2.05637 9.23218 2.4527 9.76979 2.98342C10.3074 3.51413 10.7122 4.16424 10.9511 4.88088C11.1901 5.59752 11.2566 6.36045 11.1451 7.10762C11.0336 7.85479 10.7474 8.5651 10.3097 9.18078L14.1633 13.0344C14.309 13.1853 14.3896 13.3873 14.3878 13.5971C14.386 13.8069 14.3018 14.0075 14.1535 14.1558C14.0052 14.3042 13.8045 14.3883 13.5948 14.3901C13.385 14.3919 13.1829 14.3113 13.0321 14.1656L9.17926 10.3128C8.46115 10.8234 7.61633 11.1265 6.7374 11.1889C5.85846 11.2512 4.97931 11.0705 4.1963 10.6664C3.41328 10.2622 2.75661 9.6504 2.29823 8.89786C1.83986 8.14532 1.59749 7.28113 1.59766 6.39998Z" fill="#1C1D22"/>
</svg>
